<?xml version="1.0" encoding="UTF-8"?>
<svg version="1.1" xmlns="http://www.w3.org/2000/svg" width="512" height="512">
<path d="M0 0 C7.29935428 5.47861647 11.97584605 12.71281514 14.73828125 21.3046875 C15.73919485 21.30376571 16.74010845 21.30284391 17.77135277 21.30189419 C42.14284611 21.27967966 66.51433813 21.26325461 90.88583946 21.25287533 C102.67178075 21.24772238 114.45771535 21.24069875 126.24365234 21.22924805 C136.51808064 21.21927063 146.79250408 21.21282679 157.06693709 21.21059901 C162.50549077 21.2092971 167.94403058 21.20624413 173.3825798 21.19895744 C178.50589885 21.19214899 183.62919837 21.19008035 188.75252151 21.19157982 C190.62856401 21.19130566 192.50460718 21.18932925 194.38064575 21.18548203 C203.23224172 21.16822669 211.94303616 21.1652007 220.73828125 22.3046875 C220.80015625 21.5003125 220.86203125 20.6959375 220.92578125 19.8671875 C222.72460349 11.98004382 227.30277946 5.18960643 233.73828125 0.3046875 C243.43727149 -5.4703833 252.67902465 -8.35310258 263.890625 -6.046875 C274.85592178 -3.05284998 282.06693224 2.10330931 288.296875 11.62890625 C293.23579979 20.79737097 294.07869494 30.96186021 291.546875 40.984375 C288.29141083 50.32614175 281.89394427 57.9104434 273.23046875 62.6875 C267.53854349 65.3046875 267.53854349 65.3046875 264.73828125 65.3046875 C264.73828125 133.6146875 264.73828125 201.9246875 264.73828125 272.3046875 C266.71828125 272.6346875 268.69828125 272.9646875 270.73828125 273.3046875 C280.74190592 278.49540243 287.97754288 286.49352393 291.55078125 297.1796875 C294.38328876 307.87484517 292.6977147 318.19277035 287.30078125 327.88671875 C281.89862957 335.50946643 273.76672104 340.93930291 264.73828125 343.3046875 C261.93834311 343.54262691 259.28490862 343.6850025 256.48828125 343.6796875 C255.74118896 343.68025146 254.99409668 343.68081543 254.22436523 343.68139648 C248.10285979 343.56014575 243.14422113 342.25015584 237.73828125 339.3046875 C237.07828125 338.9746875 236.41828125 338.6446875 235.73828125 338.3046875 C235.33176299 339.19876501 235.33176299 339.19876501 234.91703224 340.11090469 C233.75285732 342.27755985 232.61135782 343.67842211 230.87826538 345.4052124 C230.00327644 346.28432533 230.00327644 346.28432533 229.11061096 347.18119812 C228.47260056 347.81201797 227.83459015 348.44283783 227.17724609 349.09277344 C226.50395767 349.76635391 225.83066925 350.43993439 225.13697815 351.13392639 C222.91243322 353.35707904 220.68088996 355.57306543 218.44921875 357.7890625 C216.90464463 359.32990615 215.36051174 360.87119222 213.81680298 362.41290283 C209.75399427 366.46807787 205.68521503 370.51721074 201.61517334 374.56512451 C197.46249019 378.69734361 193.31546781 382.83523507 189.16796875 386.97265625 C181.03027727 395.08890249 172.88626856 403.19877833 164.73828125 411.3046875 C165.01687988 412.04654297 165.29547852 412.78839844 165.58251953 413.55273438 C165.94587402 414.53306641 166.30922852 415.51339844 166.68359375 416.5234375 C167.04469238 417.49216797 167.40579102 418.46089844 167.77783203 419.45898438 C171.0265938 429.08470049 169.7622139 438.50657506 165.42578125 447.6171875 C160.34233985 456.94419737 153.53512229 463.09635703 143.30078125 466.1796875 C132.65029795 468.67172259 122.90409535 467.56688369 113.42578125 461.9296875 C107.12184232 457.65968478 102.2486869 452.0699946 98.73828125 445.3046875 C98.40828125 443.3246875 98.07828125 441.3446875 97.73828125 439.3046875 C29.42828125 439.3046875 -38.88171875 439.3046875 -109.26171875 439.3046875 C-110.25171875 442.2746875 -111.24171875 445.2446875 -112.26171875 448.3046875 C-117.21959378 457.12343647 -124.81659407 462.98236924 -134.26171875 466.3046875 C-137.26171875 467.0546875 -137.26171875 467.0546875 -140.26171875 467.3046875 C-140.89207031 467.36785156 -141.52242187 467.43101562 -142.171875 467.49609375 C-152.13069951 468.05639059 -161.82555911 464.71973268 -169.33203125 458.203125 C-176.99009996 450.6690736 -181.33054103 441.48140499 -181.63671875 430.5546875 C-181.55396401 429.13492657 -181.42940706 427.7169375 -181.26171875 426.3046875 C-181.17921875 425.57894531 -181.09671875 424.85320312 -181.01171875 424.10546875 C-179.4561513 414.82067556 -173.81420728 405.91917897 -166.26171875 400.3046875 C-157.0992822 395.3046875 -157.0992822 395.3046875 -153.26171875 395.3046875 C-153.26171875 326.9946875 -153.26171875 258.6846875 -153.26171875 188.3046875 C-155.24171875 187.9746875 -157.22171875 187.6446875 -159.26171875 187.3046875 C-170.18138341 182.01355785 -176.11861988 174.49756194 -180.26171875 163.3046875 C-183.15386806 153.90520225 -181.0010041 144.13294108 -177.26171875 135.3046875 C-172.55006839 127.12643429 -164.82150708 120.79238219 -155.8125 117.77734375 C-152.19912321 117.10779001 -148.6135757 116.94031392 -144.94921875 116.8671875 C-144.26214844 116.84479004 -143.57507813 116.82239258 -142.8671875 116.79931641 C-135.93461265 116.83003444 -132.44491794 118.69261507 -125.26171875 121.3046875 C-101.50171875 97.5446875 -77.74171875 73.7846875 -53.26171875 49.3046875 C-54.58171875 45.6746875 -55.90171875 42.0446875 -57.26171875 38.3046875 C-59.38464001 27.38680674 -57.08119365 17.73513851 -51.26171875 8.3046875 C-45.69516616 0.21505158 -38.51782435 -3.9072008 -29.0546875 -6.19140625 C-18.4991426 -8.09583323 -8.88922366 -6.02115751 0 0 Z M13.73828125 38.3046875 C12.08828125 42.2646875 10.43828125 46.2246875 8.73828125 50.3046875 C3.17821264 58.32153061 -4.10080002 62.25104792 -13.26171875 65.3046875 C-13.26171875 91.7046875 -13.26171875 118.1046875 -13.26171875 145.3046875 C23.36828125 145.3046875 59.99828125 145.3046875 97.73828125 145.3046875 C99.05828125 141.6746875 100.37828125 138.0446875 101.73828125 134.3046875 C107.18320572 125.93602927 114.42821105 121.40804423 123.73828125 118.3046875 C126.58658122 118.12811606 129.38830334 118.02734348 132.23828125 117.9921875 C132.99109375 117.96318359 133.74390625 117.93417969 134.51953125 117.90429688 C141.8232935 117.82410354 145.162238 119.54976268 152.73828125 122.3046875 C176.49828125 98.5446875 200.25828125 74.7846875 224.73828125 50.3046875 C223.74828125 47.3346875 222.75828125 44.3646875 221.73828125 41.3046875 C221.40828125 40.3146875 221.07828125 39.3246875 220.73828125 38.3046875 C152.42828125 38.3046875 84.11828125 38.3046875 13.73828125 38.3046875 Z M-42.63226509 62.42913818 C-43.16137426 62.96009094 -43.69048344 63.4910437 -44.23562622 64.03808594 C-44.84419464 64.64390503 -45.45276306 65.24972412 -46.07977295 65.87390137 C-47.07886688 66.88378113 -47.07886688 66.88378113 -48.09814453 67.9140625 C-48.80069366 68.61631958 -49.5032428 69.31857666 -50.2270813 70.04211426 C-52.55850026 72.37493156 -54.88274692 74.71476332 -57.20703125 77.0546875 C-58.81799521 78.66937979 -60.4294 80.2836324 -62.04122925 81.89746094 C-66.29041555 86.15429784 -70.53356284 90.41710589 -74.7755127 94.68115234 C-79.10194374 99.02801111 -83.43401438 103.3692412 -87.765625 107.7109375 C-96.26987637 116.23666394 -104.76776347 124.76870417 -113.26171875 133.3046875 C-113.05675781 133.91957031 -112.85179688 134.53445312 -112.640625 135.16796875 C-110.95117188 140.23632813 -110.95117188 140.23632813 -109.26171875 145.3046875 C-82.86171875 145.3046875 -56.46171875 145.3046875 -29.26171875 145.3046875 C-29.26171875 118.9046875 -29.26171875 92.5046875 -29.26171875 65.3046875 C-36.03508077 61.35040563 -36.03508077 61.35040563 -42.63226509 62.42913818 Z M234.36773491 62.42913818 C233.83862574 62.96009094 233.30951656 63.4910437 232.76437378 64.03808594 C232.15580536 64.64390503 231.54723694 65.24972412 230.92022705 65.87390137 C229.92113312 66.88378113 229.92113312 66.88378113 228.90185547 67.9140625 C228.19930634 68.61631958 227.4967572 69.31857666 226.7729187 70.04211426 C224.44149974 72.37493156 222.11725308 74.71476332 219.79296875 77.0546875 C218.18200479 78.66937979 216.5706 80.2836324 214.95877075 81.89746094 C210.70958445 86.15429784 206.46643716 90.41710589 202.2244873 94.68115234 C197.89805626 99.02801111 193.56598562 103.3692412 189.234375 107.7109375 C180.73012363 116.23666394 172.23223653 124.76870417 163.73828125 133.3046875 C164.01687988 134.04726807 164.29547852 134.78984863 164.58251953 135.55493164 C164.94587402 136.53582764 165.30922852 137.51672363 165.68359375 138.52734375 C166.2252417 139.9815271 166.2252417 139.9815271 166.77783203 141.46508789 C170.07236493 151.20548244 168.82693102 161.33102727 164.55078125 170.6171875 C159.88636175 179.07822752 153.62615 183.70189983 144.73828125 187.3046875 C142.75828125 187.7996875 142.75828125 187.7996875 140.73828125 188.3046875 C140.73828125 224.9346875 140.73828125 261.5646875 140.73828125 299.3046875 C167.13828125 299.3046875 193.53828125 299.3046875 220.73828125 299.3046875 C222.38828125 295.3446875 224.03828125 291.3846875 225.73828125 287.3046875 C231.35479383 279.2810981 238.5083604 275.38132778 247.73828125 272.3046875 C247.73828125 203.9946875 247.73828125 135.6846875 247.73828125 65.3046875 C240.96491923 61.35040563 240.96491923 61.35040563 234.36773491 62.42913818 Z M-109.26171875 161.3046875 C-110.91171875 165.2646875 -112.56171875 169.2246875 -114.26171875 173.3046875 C-119.82178736 181.32153061 -127.10080002 185.25104792 -136.26171875 188.3046875 C-136.26171875 256.6146875 -136.26171875 324.9246875 -136.26171875 395.3046875 C-128.22622775 399.98189595 -128.22622775 399.98189595 -123.26171875 398.3046875 C-121.60305148 397.08446277 -121.60305148 397.08446277 -120.08526611 395.48899841 C-119.48236252 394.89021881 -118.87945892 394.29143921 -118.25828552 393.67451477 C-117.60876419 393.01420761 -116.95924286 392.35390045 -116.29003906 391.67358398 C-115.59695145 390.98093445 -114.90386383 390.28828491 -114.18977356 389.574646 C-111.89928179 387.28206322 -109.6196006 384.97903508 -107.33984375 382.67578125 C-105.75437771 381.08472039 -104.16824828 379.49432033 -102.58148193 377.90455627 C-98.40571439 373.71733107 -94.23903387 369.52117499 -90.07415771 365.32312012 C-85.82310055 361.0413822 -81.56354461 356.76811785 -77.3046875 352.49414062 C-68.9486731 344.10594577 -60.60223035 335.70829519 -52.26171875 327.3046875 C-52.54031738 326.56863281 -52.81891602 325.83257812 -53.10595703 325.07421875 C-53.46931152 324.09839844 -53.83266602 323.12257813 -54.20703125 322.1171875 C-54.56812988 321.15425781 -54.92922852 320.19132813 -55.30126953 319.19921875 C-58.57872552 309.32186283 -57.38100828 299.4358132 -53.07421875 290.0546875 C-48.43413021 281.5433623 -42.17846026 276.91917904 -33.26171875 273.3046875 C-31.94171875 272.9746875 -30.62171875 272.6446875 -29.26171875 272.3046875 C-29.26171875 235.6746875 -29.26171875 199.0446875 -29.26171875 161.3046875 C-55.66171875 161.3046875 -82.06171875 161.3046875 -109.26171875 161.3046875 Z M-13.26171875 161.3046875 C-13.26171875 197.9346875 -13.26171875 234.5646875 -13.26171875 272.3046875 C-9.96171875 273.6246875 -6.66171875 274.9446875 -3.26171875 276.3046875 C6.42226726 282.57079609 10.05652727 288.25942555 13.73828125 299.3046875 C50.36828125 299.3046875 86.99828125 299.3046875 124.73828125 299.3046875 C124.73828125 262.6746875 124.73828125 226.0446875 124.73828125 188.3046875 C121.43828125 186.9846875 118.13828125 185.6646875 114.73828125 184.3046875 C105.05429524 178.03857891 101.42003523 172.34994945 97.73828125 161.3046875 C61.10828125 161.3046875 24.47828125 161.3046875 -13.26171875 161.3046875 Z M13.73828125 315.3046875 C12.41828125 318.6046875 11.09828125 321.9046875 9.73828125 325.3046875 C5.59150044 332.85775255 -1.0180068 338.73612496 -9.1640625 341.64453125 C-13.19682231 342.50397187 -17.08326345 342.73672936 -21.19921875 342.8046875 C-21.92608887 342.82329834 -22.65295898 342.84190918 -23.40185547 342.86108398 C-28.00818651 342.80842559 -31.73681003 341.90125017 -36.05297852 340.27148438 C-37.03186539 339.90502808 -38.01075226 339.53857178 -39.01930237 339.16101074 C-39.75929977 338.87842407 -40.49929718 338.5958374 -41.26171875 338.3046875 C-50.68124418 347.60855194 -60.08736517 356.92573637 -69.47643375 366.26034164 C-73.83621097 370.5939841 -78.20053416 374.92283686 -82.57543945 379.24121094 C-86.79436036 383.4059529 -91.00108185 387.58265932 -95.1994915 391.76807404 C-96.80638249 393.36569992 -98.41768 394.95890589 -100.03334236 396.54766083 C-102.28921502 398.76743369 -104.52914874 401.00216455 -106.76586914 403.24121094 C-107.78114182 404.22951904 -107.78114182 404.22951904 -108.81692505 405.23779297 C-109.42136948 405.84911072 -110.0258139 406.46042847 -110.64857483 407.090271 C-111.18044938 407.61753658 -111.71232393 408.14480217 -112.2603159 408.6880455 C-112.59077884 409.22153736 -112.92124178 409.75502922 -113.26171875 410.3046875 C-112.15763437 415.04274034 -112.15763437 415.04274034 -109.26171875 422.3046875 C-40.95171875 422.3046875 27.35828125 422.3046875 97.73828125 422.3046875 C99.38828125 418.3446875 101.03828125 414.3846875 102.73828125 410.3046875 C108.29834986 402.28784439 115.57736252 398.35832708 124.73828125 395.3046875 C124.73828125 368.9046875 124.73828125 342.5046875 124.73828125 315.3046875 C88.10828125 315.3046875 51.47828125 315.3046875 13.73828125 315.3046875 Z M140.73828125 315.3046875 C140.73828125 341.7046875 140.73828125 368.1046875 140.73828125 395.3046875 C144.03828125 396.6246875 147.33828125 397.9446875 150.73828125 399.3046875 C153.97470244 397.6864769 155.47029352 396.82184065 157.87677002 394.40670776 C158.47125946 393.81496765 159.0657489 393.22322754 159.67825317 392.61355591 C160.31842377 391.96619476 160.95859436 391.31883362 161.61816406 390.65185547 C162.64316513 389.62729248 162.64316513 389.62729248 163.68887329 388.58203125 C165.94449101 386.32502112 168.19294347 384.0610112 170.44140625 381.796875 C172.00467017 380.22988064 173.56837648 378.66332751 175.13250732 377.09719849 C179.2468657 372.97520608 183.35518245 368.84724266 187.46228027 364.71801758 C191.65482291 360.50501166 195.85303713 356.29766592 200.05078125 352.08984375 C208.28551653 343.8336626 216.5138819 335.57116393 224.73828125 327.3046875 C224.53332031 326.68980469 224.32835937 326.07492187 224.1171875 325.44140625 C222.99088542 322.0625 221.86458333 318.68359375 220.73828125 315.3046875 C194.33828125 315.3046875 167.93828125 315.3046875 140.73828125 315.3046875 Z " fill="#000000" transform="translate(200.26171875,25.6953125)"/>
</svg>
